<svg xmlns="http://www.w3.org/2000/svg" width="146" height="175" viewBox="0 0 146 175" fill="none"><metadata><rdf:RDF xmlns:rdf="http://www.w3.org/1999/02/22-rdf-syntax-ns#" xmlns:dc="http://purl.org/dc/elements/1.1/"><rdf:Description><dc:creator>RealFaviconGenerator</dc:creator><dc:source>https://realfavicongenerator.net</dc:source></rdf:Description></rdf:RDF></metadata><path d="M5.0006 32.0006L5.0006 145.001" stroke="black" stroke-width="10" stroke-linecap="round"></path><path d="M50.0006 5.0006V59.0006" stroke="black" stroke-width="10" stroke-linecap="round"></path><path d="M5.0006 32.1018L47.0006 5.0006" stroke="black" stroke-width="10" stroke-linecap="round"></path><path d="M5.0006 145.001L41.0204 169.392" stroke="black" stroke-width="10" stroke-linecap="round"></path><path d="M130.602 30.1269L134.328 26.7932L127.826 19.1958L124.1 22.5294L127.351 26.3282L130.602 30.1269ZM60.7495 79.2019C58.6914 81.043 58.4786 84.2363 60.2741 86.3343C62.0697 88.4323 65.1936 88.6405 67.2517 86.7993L64.0006 83.0006L60.7495 79.2019ZM127.351 26.3282L124.1 22.5294L60.7495 79.2019L64.0006 83.0006L67.2517 86.7993L130.602 30.1269L127.351 26.3282Z" fill="url(#paint0_linear_0_1)"></path><path d="M134.328 139.208L138.055 142.542L131.553 150.139L127.826 146.805L131.077 143.007L134.328 139.208ZM60.7495 86.7993C58.6914 84.9582 58.4786 81.7649 60.2741 79.6669C62.0696 77.569 65.1936 77.3607 67.2517 79.2019L64.0006 83.0006L60.7495 86.7993ZM131.077 143.007L127.826 146.805L60.7495 86.7993L64.0006 83.0006L67.2517 79.2019L134.328 139.208L131.077 143.007Z" fill="url(#paint1_linear_0_1)"></path><path d="M90.5144 29.4597L94.2406 26.1258L87.7379 18.5288L84.0116 21.8627L87.263 25.6612L90.5144 29.4597ZM46.7492 55.2021C44.6913 57.0434 44.4787 60.2367 46.2744 62.3345C48.07 64.4324 51.194 64.6404 53.252 62.7991L50.0006 59.0006L46.7492 55.2021ZM87.263 25.6612L84.0116 21.8627L46.7492 55.2021L50.0006 59.0006L53.252 62.7991L90.5144 29.4597L87.263 25.6612Z" fill="url(#paint2_linear_0_1)"></path><path d="M85.3122 147.28L87.5479 149.28L91.4496 144.722L89.2138 142.722L87.263 145.001L85.3122 147.28ZM51.9514 109.382C50.7167 108.277 48.8423 108.402 47.7649 109.661C46.6874 110.92 46.815 112.836 48.0498 113.94L50.0006 111.661L51.9514 109.382ZM87.263 145.001L89.2138 142.722L51.9514 109.382L50.0006 111.661L48.0498 113.94L85.3122 147.28L87.263 145.001Z" fill="url(#paint3_linear_0_1)"></path><line x1="101.359" y1="18.9879" x2="87.7735" y2="18.9988" stroke="#01CCFF"></line><line x1="91.223" y1="28.1474" x2="101.656" y2="18.8123" stroke="#01CCFF"></line><path d="M94.0062 25.7731L100.647 19.2325H87.3653L94.0062 25.7731Z" fill="#01CCFF"></path><line x1="141.409" y1="19.7147" x2="127.823" y2="19.7257" stroke="#01CCFF"></line><line x1="131.273" y1="28.8743" x2="141.706" y2="19.5392" stroke="#01CCFF"></line><path d="M134.056 26.5L140.697 19.9593H127.415L134.056 26.5Z" fill="#01CCFF"></path><line y1="-0.5" x2="13.5856" y2="-0.5" transform="matrix(-1 -0.000806427 -0.000806427 1 145.166 150.209)" stroke="#01CCFF"></line><line y1="-0.5" x2="14" y2="-0.5" transform="matrix(0.745243 0.666793 0.666793 -0.745243 135.364 140.177)" stroke="#01CCFF"></line><path d="M137.814 142.924L144.455 149.464H131.173L137.814 142.924Z" fill="#01CCFF"></path><line y1="-0.25" x2="8.18202" y2="-0.25" transform="matrix(-1 -0.000806427 -0.000806427 1 95.7326 149.281)" stroke="#01CCFF" stroke-width="0.5"></line><line y1="-0.25" x2="8.43159" y2="-0.25" transform="matrix(0.745243 0.666793 0.666793 -0.745243 89.7862 143.268)" stroke="#01CCFF" stroke-width="0.5"></line><path d="M91.3271 144.89L95.3267 148.829H87.3276L91.3271 144.89Z" fill="#01CCFF"></path><defs>
<linearGradient id="paint0_linear_0_1" x1="63.6755" y1="82.6207" x2="128.238" y2="27.3654" gradientUnits="userSpaceOnUse">
<stop></stop>
<stop offset="0.9999" stop-color="#03CCFF"></stop>
</linearGradient>
<linearGradient id="paint1_linear_0_1" x1="130.752" y1="143.387" x2="62.3914" y2="84.8809" gradientUnits="userSpaceOnUse">
<stop stop-color="#03CCFF"></stop>
<stop offset="1"></stop>
</linearGradient>
<linearGradient id="paint2_linear_0_1" x1="49.6755" y1="58.6208" x2="87.6513" y2="26.1149" gradientUnits="userSpaceOnUse">
<stop></stop>
<stop offset="0.947115" stop-color="#00CCFF"></stop>
</linearGradient>
<linearGradient id="paint3_linear_0_1" x1="50.3257" y1="111.281" x2="88.3016" y2="143.787" gradientUnits="userSpaceOnUse">
<stop></stop>
<stop offset="1" stop-color="#03CCFF"></stop>
</linearGradient>
</defs><style>@media (prefers-color-scheme: light) { :root { filter: contrast(1) brightness(0.1); } }
@media (prefers-color-scheme: dark) { :root { filter: contrast(0.3846153846153846) brightness(4.5); } }
</style></svg>